REM DIRINDEX 1\2,1\3,1\4,1\5,1\6
REM DIRNAME "folder01","folder02","folder03","folder04","folder05","folder06"
TITLE ""
FILE "Disc2Track33.mp3" MP3
  TRACK 01 AUDIO
    TITLE "3:cjc161_02987"
    INDEX 01 00:00:00
  TRACK 02 AUDIO
    TITLE "4:cjc161_02988"
    INDEX 01 00:01:12
  TRACK 03 AUDIO
    TITLE "5:cjc161_02989"
    INDEX 01 00:03:24
  TRACK 04 AUDIO
    TITLE "6:cjc161_02990"
    INDEX 01 00:04:45
  TRACK 05 AUDIO
    TITLE "0:"
    INDEX 01 00:07:12
  TRACK 06 AUDIO
    TITLE "3:cjc161_02991"
    INDEX 01 00:07:46
  TRACK 07 AUDIO
    TITLE "4:cjc161_02992"
    INDEX 01 00:09:05
  TRACK 08 AUDIO
    TITLE "5:cjc161_02993"
    INDEX 01 00:10:20
  TRACK 09 AUDIO
    TITLE "6:cjc161_02994"
    INDEX 01 00:11:55
  TRACK 10 AUDIO
    TITLE "0:"
    INDEX 01 00:15:31
  TRACK 11 AUDIO
    TITLE "3:cjc161_02995"
    INDEX 01 00:15:63
  TRACK 12 AUDIO
    TITLE "4:cjc161_02996"
    INDEX 01 00:17:13
  TRACK 13 AUDIO
    TITLE "5:cjc161_02997"
    INDEX 01 00:21:28
  TRACK 14 AUDIO
    TITLE "6:cjc161_02998"
    INDEX 01 00:22:53
  TRACK 15 AUDIO
    TITLE "0:"
    INDEX 01 00:26:59
  TRACK 16 AUDIO
    TITLE "3:cjc161_02999"
    INDEX 01 00:27:15
  TRACK 17 AUDIO
    TITLE "4:cjc161_03000"
    INDEX 01 00:28:40
  TRACK 18 AUDIO
    TITLE "5:cjc161_03001"
    INDEX 01 00:30:47
  TRACK 19 AUDIO
    TITLE "0:"
    INDEX 01 00:32:01
  TRACK 20 AUDIO
    TITLE "3:cjc161_03002"
    INDEX 01 00:32:38
  TRACK 21 AUDIO
    TITLE "4:cjc161_03003"
    INDEX 01 00:34:11
  TRACK 22 AUDIO
    TITLE "5:cjc161_03004"
    INDEX 01 00:35:13
  TRACK 23 AUDIO
    TITLE "6:cjc161_03005"
    INDEX 01 00:36:61
  TRACK 24 AUDIO
    TITLE "0:"
    INDEX 01 00:39:26
  TRACK 25 AUDIO
    TITLE "3:cjc161_03006"
    INDEX 01 00:39:57
  TRACK 26 AUDIO
    TITLE "4:cjc161_03007"
    INDEX 01 00:41:05
  TRACK 27 AUDIO
    TITLE "5:cjc161_03008"
    INDEX 01 00:42:54
  TRACK 28 AUDIO
    TITLE "6:cjc161_03009"
    INDEX 01 00:44:02
  TRACK 29 AUDIO
    TITLE "0:"
    INDEX 01 00:47:10
  TRACK 30 AUDIO
    TITLE "3:cjc161_03010"
    INDEX 01 00:47:43
  TRACK 31 AUDIO
    TITLE "4:cjc161_03011"
    INDEX 01 00:48:62
  TRACK 32 AUDIO
    TITLE "5:cjc161_03012"
    INDEX 01 00:50:06
  TRACK 33 AUDIO
    TITLE "6:cjc161_03013"
    INDEX 01 00:51:23
  TRACK 34 AUDIO
    TITLE "0:"
    INDEX 01 00:54:26
  TRACK 35 AUDIO
    TITLE "3:cjc161_03014"
    INDEX 01 00:54:55
  TRACK 36 AUDIO
    TITLE "4:cjc161_03015"
    INDEX 01 00:56:11
  TRACK 37 AUDIO
    TITLE "5:cjc161_03016"
    INDEX 01 00:56:73
  TRACK 38 AUDIO
    TITLE "0:"
    INDEX 01 00:58:31
  TRACK 39 AUDIO
    TITLE "3:cjc161_03017"
    INDEX 01 00:58:67
  TRACK 40 AUDIO
    TITLE "4:cjc161_03018"
    INDEX 01 01:00:12
  TRACK 41 AUDIO
    TITLE "5:cjc161_03019"
    INDEX 01 01:01:20
  TRACK 42 AUDIO
    TITLE "0:"
    INDEX 01 01:02:47
  TRACK 43 AUDIO
    TITLE "3:cjc161_03020"
    INDEX 01 01:03:11
  TRACK 44 AUDIO
    TITLE "4:cjc161_03021"
    INDEX 01 01:04:32
  TRACK 45 AUDIO
    TITLE "5:cjc161_03022"
    INDEX 01 01:05:69
  TRACK 46 AUDIO
    TITLE "6:cjc161_03023"
    INDEX 01 01:07:13
  TRACK 47 AUDIO
    TITLE "0:"
    INDEX 01 01:09:13
  TRACK 48 AUDIO
    TITLE "3:cjc161_03024"
    INDEX 01 01:09:45
  TRACK 49 AUDIO
    TITLE "4:cjc161_03025"
    INDEX 01 01:10:70
  TRACK 50 AUDIO
    TITLE "5:cjc161_03026"
    INDEX 01 01:13:33
  TRACK 51 AUDIO
    TITLE "0:"
    INDEX 01 01:14:58
  TRACK 52 AUDIO
    TITLE "3:cjc161_03027"
    INDEX 01 01:15:22
  TRACK 53 AUDIO
    TITLE "4:cjc161_03028"
    INDEX 01 01:16:45
  TRACK 54 AUDIO
    TITLE "5:cjc161_03029"
    INDEX 01 01:18:06
  TRACK 55 AUDIO
    TITLE "6:cjc161_03030"
    INDEX 01 01:19:27
  TRACK 56 AUDIO
    TITLE "0:"
    INDEX 01 01:22:30
  TRACK 57 AUDIO
    TITLE "3:cjc161_03031"
    INDEX 01 01:22:61
  TRACK 58 AUDIO
    TITLE "4:cjc161_03032"
    INDEX 01 01:24:19
  TRACK 59 AUDIO
    TITLE "5:cjc161_03033"
    INDEX 01 01:25:28
  TRACK 60 AUDIO
    TITLE "6:cjc161_03034"
    INDEX 01 01:26:59
  TRACK 61 AUDIO
    TITLE "0:"
    INDEX 01 01:28:56
  TRACK 62 AUDIO
    TITLE "3:cjc161_03035"
    INDEX 01 01:29:14
  TRACK 63 AUDIO
    TITLE "4:cjc161_03036"
    INDEX 01 01:30:47
  TRACK 64 AUDIO
    TITLE "5:cjc161_03037"
    INDEX 01 01:32:01
  TRACK 65 AUDIO
    TITLE "6:cjc161_03038"
    INDEX 01 01:33:33
  TRACK 66 AUDIO
    TITLE "0:"
    INDEX 01 01:35:60
